<?xml version="1.0" encoding="UTF-8" standalone="no"?>
<!-- Created with Inkscape (http://www.inkscape.org/) -->

<svg
   version="1.1"
   id="svg2"
   xml:space="preserve"
   width="1192.2604"
   height="152.68634"
   viewBox="0 0 1192.2604 152.68634"
   sodipodi:docname="expo.pdf"
   xmlns:inkscape="http://www.inkscape.org/namespaces/inkscape"
   xmlns:sodipodi="http://sodipodi.sourceforge.net/DTD/sodipodi-0.dtd"
   xmlns="http://www.w3.org/2000/svg"
   xmlns:svg="http://www.w3.org/2000/svg"><defs
     id="defs6"><clipPath
       clipPathUnits="userSpaceOnUse"
       id="clipPath30"><path
         d="M 0,0 H 94.685562 V 111.8106 H 0 Z"
         id="path28" /></clipPath><clipPath
       clipPathUnits="userSpaceOnUse"
       id="clipPath46"><path
         d="M 0,0 H 95 V 112 H 0 Z"
         id="path44" /></clipPath><clipPath
       clipPathUnits="userSpaceOnUse"
       id="clipPath62"><path
         d="M 0,0 H 95 V 112 H 0 Z"
         id="path60" /></clipPath><clipPath
       clipPathUnits="userSpaceOnUse"
       id="clipPath80"><path
         d="M 0,0 H 95 V 112 H 0 Z"
         id="path78" /></clipPath><clipPath
       clipPathUnits="userSpaceOnUse"
       id="clipPath98"><path
         d="M 0,0 H 95 V 112 H 0 Z"
         id="path96" /></clipPath></defs><sodipodi:namedview
     id="namedview4"
     pagecolor="#505050"
     bordercolor="#ffffff"
     borderopacity="1"
     inkscape:pageshadow="0"
     inkscape:pageopacity="0"
     inkscape:pagecheckerboard="1" /><g
     id="g8"
     inkscape:groupmode="layer"
     inkscape:label="expo"
     transform="matrix(1.3333333,0,0,-1.3333333,-31.083621,167.47318)"><g
       id="g10"
       transform="translate(72,72)"><text
         transform="matrix(1,0,0,-1,-58.634,-38.466)"
         style="font-variant:normal;font-size:127.522px;font-family:Operator;-inkscape-font-specification:Operator-Medium-Identity-H;writing-mode:lr-tb;fill:#3c3c3c;fill-opacity:1;fill-rule:nonzero;stroke:none"
         id="text14"><tspan
           x="0 64.526031 130.07224 200.71931 271.49393 329.77136 388.30389 443.90338 514.04041"
           y="0"
           sodipodi:role="line"
           id="tspan12">Expositor</tspan></text><g
         id="g16"><text
           transform="matrix(1,0,0,-1,556.66,-38.466)"
           style="font-variant:normal;font-size:127.522px;font-family:Operator;-inkscape-font-specification:Operator-Medium-Identity-H;writing-mode:lr-tb;fill:#f0f0f0;fill-opacity:1;fill-rule:nonzero;stroke:#3c3c3c;stroke-width:2.5;stroke-linecap:butt;stroke-linejoin:miter;stroke-miterlimit:10;stroke-dasharray:none;stroke-opacity:1"
           id="text20"><tspan
             x="0"
             y="0"
             id="tspan18">2</tspan></text><g
           id="g22"
           transform="matrix(0.79836,0,0,0.79836,628.789,-40.458)"><g
             id="g24"><g
               id="g26"
               clip-path="url(#clipPath30)"><g
                 id="g32"
                 transform="matrix(1,0,0,-1,0,111.8106)"><g
                   id="g34"><g
                     id="g36"><path
                       d="M 54.828,49.492 C 54.359,69.242 21.5,64.285 22.184,100.809 l 64.8,0.336 C 81.047,82.883 114.453,29.824 53.164,9.707 V 9.703 c 0,0 -6.91,-7.371 -16.91,-8.004 l 0.633,10.02 -12.922,12.988 C 16.512,33.625 -0.797,48.457 1.992,51.953 10.824,66.988 19.938,64.516 19.938,64.516 31.961,51.637 36.434,58.59 54.828,49.492 Z"
                       style="fill:#f0f0f0;fill-opacity:1;fill-rule:evenodd;stroke:#3c3c3c;stroke-width:3.40158;stroke-linecap:butt;stroke-linejoin:round;stroke-miterlimit:4;stroke-dasharray:none;stroke-opacity:1"
                       id="path38" /></g><g
                     id="g40"><g
                       id="g42" /><g
                       id="g54"><g
                         clip-path="url(#clipPath46)"
                         opacity="0.35"
                         id="g52"><g
                           id="g50"><path
                             d="m 38.184,25.902 c -2.2,2.442 -1.957,3.164 -2.309,6.098 2.285,0.348 4.273,0.68 6.375,0.184 6.75,-3.575 0.215,-9.645 -4.066,-6.282 z"
                             style="fill:#000000;fill-opacity:1;fill-rule:evenodd;stroke:none"
                             id="path48" /></g></g></g></g><g
                     id="g56"><g
                       id="g58" /><g
                       id="g70"><g
                         clip-path="url(#clipPath62)"
                         opacity="0.3"
                         id="g68"><g
                           id="g66"><path
                             d="m 9.473,47.086 c -2.407,1.156 -2.828,2.723 -2.996,4.18 2.066,1.187 5.32,-0.356 5.789,-4.059 z"
                             style="fill:#000000;fill-opacity:1;fill-rule:evenodd;stroke:none"
                             id="path64" /></g></g></g></g><path
                     d="m 6.637,55.543 c 0,0 1.847,3.223 -3.125,-4.652 C 5.379,45.285 26.934,25.152 38.77,12.527 L 38.25,3.781 c 0,0 3.027,4.789 3.535,9.828 C 29.34,26.055 7.145,44.32 5.434,51.066 5.5,52.977 6.113,53.98 6.633,55.543 Z"
                     style="fill:#ffffff;fill-opacity:1;fill-rule:evenodd;stroke:none"
                     id="path72" /><g
                     id="g74"><g
                       id="g76" /><g
                       id="g88"><g
                         clip-path="url(#clipPath80)"
                         opacity="0.15"
                         id="g86"><g
                           id="g84"><path
                             d="m 21.004,64.352 c 5.754,-9.461 23.789,-9.141 33.824,-14.864 0.914,0.293 0.371,3.883 0.68,3.489 2.402,-3.09 8.293,-9.293 2.461,-19.485 1.48,16.887 -38.887,15.848 -45.043,29.211 -0.567,1.235 6.187,2.246 8.078,1.649 z"
                             style="fill:#000000;fill-opacity:1;fill-rule:evenodd;stroke:none"
                             id="path82" /></g></g></g></g><path
                     d="M 56.551,51.664 C 53.68,68.141 29.496,69 25.406,87.496 33.438,69.336 55.91,71.301 56.551,51.664 Z"
                     style="fill:#ffffff;fill-opacity:1;fill-rule:evenodd;stroke:none"
                     id="path90" /><g
                     id="g92"><g
                       id="g94" /><g
                       id="g106"><g
                         clip-path="url(#clipPath98)"
                         opacity="0.15"
                         id="g104"><g
                           id="g102"><path
                             d="m 36.254,1.699 c 0,0 8.648,2.094 13.902,11.289 58.11,20.282 21.664,79.192 16.41,88.082 l 20.418,0.075 C 81.352,91.953 114.051,28.586 53.164,9.703 48.133,6.676 45.32,2.309 36.254,1.699 Z"
                             style="fill:#000000;fill-opacity:1;fill-rule:evenodd;stroke:none"
                             id="path100" /></g></g></g></g><g
                     id="g108"><path
                       d="m 54.285,87.594 c 0,0 -25.883,0.136 -33.14,4.59 -4.899,3.007 -6.051,10.351 -5.387,17.925 H 92.809 C 93.477,102.535 92.32,95.188 87.426,92.184 80.168,87.73 54.285,87.594 54.285,87.594 Z"
                       style="fill:#f0f0f0;fill-opacity:1;fill-rule:evenodd;stroke:#3c3c3c;stroke-width:3.40158;stroke-linecap:butt;stroke-linejoin:round;stroke-miterlimit:4;stroke-dasharray:none;stroke-opacity:1"
                       id="path110" /></g><path
                     d="m 54.285,89.551 c 0,0 -24.695,-0.391 -32.949,4.722 -1.051,0.649 -1.984,2.379 -2.703,3.942 0.738,-0.942 1.422,-1.738 2.512,-2.41 7.257,-4.453 33.14,-4.586 33.14,-4.586 0,0 25.883,0.133 33.141,4.586 1.109,0.683 1.679,1.507 2.426,2.468 0.074,-0.214 -1.157,-3.281 -3.243,-4.523 -7.808,-4.23 -32.324,-4.199 -32.324,-4.199 z"
                     style="fill:#ffffff;fill-opacity:1;fill-rule:evenodd;stroke:none"
                     id="path112" /></g></g></g></g></g><text
           transform="matrix(1,0,0,-1,710.36,-38.466)"
           style="font-variant:normal;font-size:127.522px;font-family:Operator;-inkscape-font-specification:Operator-Medium-Identity-H;writing-mode:lr-tb;fill:#f0f0f0;fill-opacity:1;fill-rule:nonzero;stroke:#3c3c3c;stroke-width:2.5;stroke-linecap:butt;stroke-linejoin:miter;stroke-miterlimit:10;stroke-dasharray:none;stroke-opacity:1"
           id="text116"><tspan
             x="0 70.136993"
             y="0"
             sodipodi:role="line"
             id="tspan114">29</tspan></text></g></g></g></svg>
